<svg width="71" height="72" viewBox="0 0 71 72" fill="none" xmlns="http://www.w3.org/2000/svg">
<path d="M35.5 3C17.4541 3 2.95831 17.7 2.95831 36C2.95831 54.3 17.4541 69 35.5 69C53.5458 69 68.0416 54.3 68.0416 36C68.0416 17.7 53.5458 3 35.5 3ZM50.4396 30C50.4396 30.3 50.4396 30.6 50.4396 30.9C50.4396 40.2 43.4875 51 30.6187 51C26.625 51 23.075 49.8 19.9687 47.85C20.5604 47.85 21.0041 48 21.5958 48C24.85 48 27.8083 46.8 30.3229 45C27.2166 45 24.7021 42.9 23.8146 40.05C24.2583 40.2 24.7021 40.2 25.1458 40.2C25.7375 40.2 26.3291 40.05 26.9208 39.9C23.6666 39.3 21.3 36.45 21.3 33C21.3 33 21.3 33 21.3 32.85C22.1875 33.45 23.3708 33.75 24.4062 33.75C22.4833 32.55 21.3 30.3 21.3 27.9C21.3 26.55 21.5958 25.35 22.1875 24.3C25.5896 28.65 30.7666 31.35 36.5354 31.65C36.3875 31.2 36.3875 30.6 36.3875 30C36.3875 26.1 39.4937 22.95 43.3396 22.95C45.4104 22.95 47.1854 23.85 48.3687 25.2C49.9958 24.9 51.475 24.3 52.8062 23.55C52.2146 25.2 51.1791 26.55 49.7 27.45C51.1791 27.3 52.5104 26.85 53.6937 26.4C53.1021 27.75 51.9187 28.95 50.4396 30Z" fill="#2F80ED"/>
</svg>
