<svg width="72" height="72" viewBox="0 0 72 72" fill="none" xmlns="http://www.w3.org/2000/svg">
<path d="M32.25 42.2999L43.35 35.9999L32.25 29.6999V42.2999Z" fill="#EB5757"/>
<path d="M36 3C17.85 3 3 17.7 3 36C3 54.3 17.85 69 36 69C54.3001 69 69.0001 54.3 69.0001 36C69.0001 17.7 54.1501 3 36 3ZM52.5001 45.15C52.0501 46.8 50.8501 48 49.2001 48.45C46.2001 49.2 36.1501 49.2 36.1501 49.2C36.1501 49.2 25.95 49.2 23.1 48.45C21.45 48 20.25 46.8 19.8 45.15C19.05 42.15 19.05 36 19.05 36C19.05 36 19.05 29.85 19.8 27C20.25 25.35 21.45 24.15 23.1 23.7C26.1 22.95 36.3 22.95 36.3 22.95C36.3 22.95 46.5 22.95 49.3501 23.7C51.0001 24.15 52.2001 25.35 52.6501 27C53.4001 30 53.4001 36.15 53.4001 36.15C53.4001 36.15 53.2501 42.15 52.5001 45.15Z" fill="#EB5757"/>
</svg>
