<svg width="130" height="20" viewBox="0 0 130 20" fill="none" xmlns="http://www.w3.org/2000/svg">
<path d="M9.79041 20C15.6434 20 18.1442 15.9405 18.7561 13.2882L14.7388 12.1245C14.3664 13.5047 13.0627 15.724 9.79041 15.724C6.97035 15.724 4.36312 13.6401 4.36312 10.0406C4.36312 6.00812 7.20979 4.16779 9.7372 4.16779C13.0627 4.16779 14.2599 6.41407 14.5526 7.74019L18.5166 6.4682C17.9047 3.70771 15.4039 0 9.7372 0C4.46953 0 0 4.05954 0 10.0406C0 16.0217 4.36312 20 9.79041 20Z" fill="white"/>
<path d="M24.7581 9.98647C24.7581 5.98106 27.5781 4.16779 30.212 4.16779C32.8192 4.16779 35.6393 5.98106 35.6393 9.98647C35.6393 13.9919 32.8192 15.7781 30.212 15.7781C27.5781 15.7781 24.7581 13.9919 24.7581 9.98647ZM20.395 10.0135C20.395 16.0758 24.8911 20 30.212 20C35.5062 20 40.0024 16.0758 40.0024 10.0135C40.0024 3.92422 35.5062 0 30.212 0C24.8911 0 20.395 3.92422 20.395 10.0135Z" fill="white"/>
<path d="M46.2702 9.98647C46.2702 5.98106 49.0903 4.16779 51.7241 4.16779C54.3313 4.16779 57.1514 5.98106 57.1514 9.98647C57.1514 13.9919 54.3313 15.7781 51.7241 15.7781C49.0903 15.7781 46.2702 13.9919 46.2702 9.98647ZM41.9071 10.0135C41.9071 16.0758 46.4032 20 51.7241 20C57.0184 20 61.5145 16.0758 61.5145 10.0135C61.5145 3.92422 57.0184 0 51.7241 0C46.4032 0 41.9071 3.92422 41.9071 10.0135Z" fill="white"/>
<path d="M76.8544 19.594V15.5074H68.7135V0.405954H64.51V19.594H76.8544Z" fill="white"/>
<path d="M91.9948 4.49256V0.405954H76.1652V4.49256H81.965V19.594H86.1684V4.49256H91.9948Z" fill="white"/>
<path d="M109.35 4.49256V0.405954H93.5204V4.49256H99.3202V19.594H103.524V4.49256H109.35Z" fill="white"/>
<path d="M114.756 9.98647C114.756 5.98106 117.576 4.16779 120.21 4.16779C122.817 4.16779 125.637 5.98106 125.637 9.98647C125.637 13.9919 122.817 15.7781 120.21 15.7781C117.576 15.7781 114.756 13.9919 114.756 9.98647ZM110.393 10.0135C110.393 16.0758 114.889 20 120.21 20C125.504 20 130 16.0758 130 10.0135C130 3.92422 125.504 0 120.21 0C114.889 0 110.393 3.92422 110.393 10.0135Z" fill="white"/>
</svg>
