<svg width="156" height="24" viewBox="0 0 156 24" fill="none" xmlns="http://www.w3.org/2000/svg">
<path d="M11.7485 24C18.772 24 21.773 19.1286 22.5073 15.9459L17.6866 14.5494C17.2396 16.2057 15.6753 18.8687 11.7485 18.8687C8.36442 18.8687 5.23574 16.3681 5.23574 12.0487C5.23574 7.20974 8.65174 5.00135 11.6846 5.00135C15.6753 5.00135 17.1119 7.69689 17.4631 9.28823L22.22 7.76184C21.4857 4.44926 18.4847 0 11.6846 0C5.36344 0 0 4.87145 0 12.0487C0 19.226 5.23574 24 11.7485 24Z" fill="white"/>
<path d="M29.7097 11.9838C29.7097 7.17727 33.0938 5.00135 36.2544 5.00135C39.383 5.00135 42.7671 7.17727 42.7671 11.9838C42.7671 16.7903 39.383 18.9337 36.2544 18.9337C33.0938 18.9337 29.7097 16.7903 29.7097 11.9838ZM24.4739 12.0162C24.4739 19.2909 29.8693 24 36.2544 24C42.6075 24 48.0029 19.2909 48.0029 12.0162C48.0029 4.70907 42.6075 0 36.2544 0C29.8693 0 24.4739 4.70907 24.4739 12.0162Z" fill="white"/>
<path d="M55.5242 11.9838C55.5242 7.17727 58.9083 5.00135 62.0689 5.00135C65.1976 5.00135 68.5817 7.17727 68.5817 11.9838C68.5817 16.7903 65.1976 18.9337 62.0689 18.9337C58.9083 18.9337 55.5242 16.7903 55.5242 11.9838ZM50.2885 12.0162C50.2885 19.2909 55.6839 24 62.0689 24C68.422 24 73.8174 19.2909 73.8174 12.0162C73.8174 4.70907 68.422 0 62.0689 0C55.6839 0 50.2885 4.70907 50.2885 12.0162Z" fill="white"/>
<path d="M92.2253 23.5129V18.6089H82.4562V0.487144H77.412V23.5129H92.2253Z" fill="white"/>
<path d="M110.394 5.39107V0.487144H91.3982V5.39107H98.3579V23.5129H103.402V5.39107H110.394Z" fill="white"/>
<path d="M131.22 5.39107V0.487144H112.224V5.39107H119.184V23.5129H124.228V5.39107H131.22Z" fill="white"/>
<path d="M137.707 11.9838C137.707 7.17727 141.091 5.00135 144.252 5.00135C147.38 5.00135 150.764 7.17727 150.764 11.9838C150.764 16.7903 147.38 18.9337 144.252 18.9337C141.091 18.9337 137.707 16.7903 137.707 11.9838ZM132.471 12.0162C132.471 19.2909 137.866 24 144.252 24C150.605 24 156 19.2909 156 12.0162C156 4.70907 150.605 0 144.252 0C137.866 0 132.471 4.70907 132.471 12.0162Z" fill="white"/>
</svg>
