<svg width="71" height="72" viewBox="0 0 71 72" fill="none" xmlns="http://www.w3.org/2000/svg">
<path d="M35.5 3C17.4542 3 2.95831 17.7 2.95831 36C2.95831 54.3 17.4542 69 35.5 69C53.5459 69 68.0417 54.3 68.0417 36C68.0417 17.7 53.5459 3 35.5 3ZM48.8125 48H39.6417C39.6417 48 31.3583 35.85 31.2104 35.4C30.9146 35.1 30.9146 35.4 30.9146 35.4C31.2104 37.05 31.5063 37.35 31.5063 40.2V48H22.1875V24H31.5063C31.5063 24 39.9375 36.9 40.2334 37.2C40.5292 37.5 40.5292 37.2 40.5292 37.2C40.0854 35.25 39.7896 34.35 39.7896 31.05V24H48.9605V48H48.8125Z" fill="#27AE60"/>
</svg>
